Coordinates
version=1
nRows=9
nColumns=36
inDegrees=yes

Units are S.I. units (second, meters, Newtons, ...)
If the header above contains a line with 'inDegrees', this indicates whether rotational values are in degrees (yes) or radians (no).

endheader
time	pelvis_tilt	pelvis_list	pelvis_rotation	pelvis_tx	pelvis_ty	pelvis_tz	hip_flexion_r	hip_adduction_r	hip_rotation_r	knee_angle_r	knee_angle_r_beta	ankle_angle_r	subtalar_angle_r	mtp_angle_r	hip_flexion_l	hip_adduction_l	hip_rotation_l	knee_angle_l	knee_angle_l_beta	ankle_angle_l	subtalar_angle_l	mtp_angle_l	lumbar_extension	lumbar_bending	lumbar_rotation	arm_flex_r	arm_add_r	arm_rot_r	elbow_flex_r	pro_sup_r	arm_flex_l	arm_add_l	arm_rot_l	elbow_flex_l	pro_sup_l
      1.15000000	    -18.60273153	      1.06218638	      1.93328395	     -0.70273787	      1.27097670	     -0.58146933	     36.38420525	     -3.52921507	     -1.91564170	     51.06240730	      0.89120713	    -22.92176236	     -9.80651644	     -4.91162091	     33.20951793	     -3.32933847	      0.09636954	     60.28176081	      1.05211521	    -12.80158903	    -13.46313508	     -4.91162091	     -2.87311682	      2.53399819	     -0.70913199	     29.69361712	    -54.85837283	      0.29031658	     97.31341176	    103.62611664	     70.78364335	    -52.75328682	     24.87983490	     90.64650429	     94.22299541
      1.16000000	    -18.48885597	      1.35795213	      1.84651887	     -0.69289762	      1.27535480	     -0.58089826	     36.57767542	     -3.87103829	     -1.93725957	     49.15345207	      0.85788958	    -23.11394907	     -8.42922789	     -5.02126300	     33.87910261	     -3.51428567	     -0.08981038	     60.49512793	      1.05583916	    -12.25024277	    -12.28336428	     -5.02126300	     -3.11600733	      2.20051917	     -0.70653402	     28.96082590	    -54.69698401	     -0.45334666	     96.34447174	    103.46954457	     70.52637459	    -53.66526173	     24.58996711	     90.64578092	     94.26900445
      1.17000000	    -18.28704225	      1.64147702	      1.79390710	     -0.68321666	      1.27898033	     -0.58039554	     36.59546938	     -4.14559930	     -1.80978392	     46.97555577	      0.81987812	    -23.68614954	     -7.11813819	     -5.05875630	     34.37265533	     -3.70831656	     -0.26493392	     60.18244184	      1.05038176	    -11.89577768	    -11.02743991	     -5.05875630	     -3.49770913	      1.88526190	     -0.72964532	     28.33745786	    -54.51982122	     -1.00946543	     95.36777095	    103.38510979	     70.26432776	    -54.41260832	     24.27974270	     90.55581430	     94.23570772
      1.18000000	    -18.00331126	      1.87595406	      1.75602289	     -0.67366531	      1.28179719	     -0.57998588	     36.50481248	     -4.36558458	     -1.67643898	     44.70698561	      0.78028410	    -24.04139287	     -5.72536111	     -5.14169279	     34.73029625	     -3.98172888	     -0.36526095	     59.51602101	      1.03875052	    -10.44534902	     -8.06450802	     -5.14169279	     -4.06859919	      1.67380776	     -0.69501681	     27.59511572	    -54.49516710	     -1.70877744	     94.75903196	    103.41030390	     69.85253435	    -54.95671989	     23.67920696	     90.60404691	     94.14250253
      1.19000000	    -17.61665310	      2.07444499	      1.72455545	     -0.66423783	      1.28380004	     -0.57963783	     36.28681483	     -4.51141127	     -1.47239413	     42.38082651	      0.73968496	    -24.90794656	     -4.86833705	     -5.18700049	     34.98229561	     -4.21983171	     -0.41855226	     58.52233835	      1.02140749	    -10.30444026	     -6.49140556	     -5.18700049	     -4.75773542	      1.48444210	     -0.68822841	     27.04044831	    -54.50891228	     -2.08809108	     94.08883096	    103.41033785	     69.66692180	    -55.45540614	     23.40376123	     90.57297552	     94.08477342
      1.20000000	    -17.27937649	      2.27336207	      1.71911360	     -0.65490243	      1.28473767	     -0.57946581	     36.15308993	     -4.64090496	     -1.15625545	     40.20404330	      0.70169293	    -25.52636856	     -4.39729404	     -5.20754515	     35.25994981	     -4.29815607	     -0.24353366	     57.28488988	      0.99980994	    -10.46688418	     -5.53643803	     -5.20754515	     -5.39335929	      1.33026780	     -0.68988559	     26.48280640	    -54.70214456	     -2.19965204	     93.58360325	    103.40221793	     69.46421299	    -55.97093337	     23.32840053	     90.56097327	     94.05686263
      1.21000000	    -16.74928279	      2.34221492	      1.63679294	     -0.64558756	      1.28501754	     -0.57886780	     35.79727158	     -4.49191933	     -0.73024244	     38.01796013	      0.66353858	    -26.88138794	     -4.78489168	     -5.33015963	     35.35415224	     -4.70225452	     -0.19269579	     55.96913190	      0.97684563	    -10.41926786	     -3.72633806	     -5.33015963	     -6.36797608	      1.28609869	     -0.55511068	     25.71028859	    -54.96339167	     -2.77847086	     93.43948490	    103.59540758	     69.43949941	    -56.40308830	     23.17967000	     90.71500148	     93.83903713
      1.22000000	    -16.27141678	      2.47300868	      1.65738755	     -0.63628108	      1.28426865	     -0.57853719	     35.53377153	     -4.51548025	     -0.36726980	     36.06138622	      0.62938992	    -27.53487432	     -4.78173556	     -5.36718620	     35.47575422	     -4.85806650	      0.05959059	     54.47098370	      0.95069801	    -11.09740748	     -3.00677519	     -5.36718620	     -7.23071862	      1.18895329	     -0.60959562	     25.18158176	    -55.24875905	     -2.91121132	     93.23588121	    103.65554161	     69.49858700	    -56.96274440	     23.32732819	     90.83609618	     93.77674202
      1.23000000	    -15.85317973	      2.57765178	      1.80271799	     -0.62701422	      1.28249129	     -0.57851585	     35.34557638	     -4.60958595	     -0.11332644	     34.27778780	      0.59826026	    -28.09061515	     -4.96719206	     -5.39160655	     35.65655979	     -4.84899972	      0.58285958	     52.87291253	      0.92280641	    -11.69273759	     -2.50843892	     -5.39160655	     -8.01581069	      1.16389929	     -0.77485841	     24.66111998	    -55.65415064	     -3.00228974	     93.14848337	    103.69611441	     69.52966890	    -57.48372368	     23.52226879	     90.97193376	     93.74356661
